<svg width="40.000000" height="40.000000" viewBox="0 0 40 40" fill="none" xmlns="http://www.w3.org/2000/svg" xmlns:xlink="http://www.w3.org/1999/xlink">
	<desc>
			Created with Pixso.
	</desc>
	<defs>
		<clipPath id="clip735_163">
			<rect id="mdi:address-marker" width="24.000000" height="24.000000" transform="translate(8.000000 8.000000)" fill="white" fill-opacity="0"/>
		</clipPath>
	</defs>
	<rect id="mdi:address-marker" width="24.000000" height="24.000000" transform="translate(8.000000 8.000000)" fill="#FFFFFF" fill-opacity="0"/>
	<g clip-path="url(#clip735_163)">
		<path id="Vector" d="M20 19.5C19.3369 19.5 18.701 19.2366 18.2322 18.7678C17.7634 18.2988 17.5 17.6631 17.5 17C17.5 16.3369 17.7634 15.7012 18.2322 15.2322C18.701 14.7634 19.3369 14.5 20 14.5C20.6631 14.5 21.299 14.7634 21.7678 15.2322C22.2366 15.7012 22.5 16.3369 22.5 17C22.5 17.3284 22.4353 17.6533 22.3097 17.9568C22.1841 18.26 21.9999 18.5356 21.7678 18.7678C21.5356 19 21.26 19.1841 20.9567 19.3098C20.6534 19.4353 20.3282 19.5 20 19.5ZM20 10C18.1434 10 16.363 10.7375 15.0503 12.0503C13.7375 13.363 13 15.1436 13 17C13 22.25 20 30 20 30C20 30 27 22.25 27 17C27 15.1436 26.2625 13.363 24.9497 12.0503C23.637 10.7375 21.8566 10 20 10Z" fill="#1E1E1E" fill-opacity="1.000000" fill-rule="nonzero"/>
	</g>
</svg>
