<svg width="24.000000" height="24.000000" viewBox="0 0 24 24" fill="none" xmlns="http://www.w3.org/2000/svg" xmlns:xlink="http://www.w3.org/1999/xlink">
	<desc>
			Created with Pixso.
	</desc>
	<defs>
		<clipPath id="clip735_157">
			<rect id="ic:round-phone" width="24.000000" height="24.000000" fill="white" fill-opacity="0"/>
		</clipPath>
	</defs>
	<rect id="ic:round-phone" width="24.000000" height="24.000000" fill="#FFFFFF" fill-opacity="0"/>
	<g clip-path="url(#clip735_157)">
		<path id="Vector" d="M19.23 15.2603L16.6901 14.9702C16.3914 14.9351 16.0886 14.9683 15.8046 15.0669C15.5205 15.1658 15.2626 15.3274 15.05 15.5403L13.2101 17.3804C10.3712 15.9365 8.06384 13.6292 6.62 10.7903L8.47009 8.94019C8.90002 8.51025 9.10999 7.91016 9.04004 7.30029L8.75 4.78027C8.69336 4.29248 8.45923 3.84253 8.09229 3.51611C7.72534 3.1897 7.2511 3.00977 6.76001 3.01025L5.03003 3.01025C3.90002 3.01025 2.96008 3.9502 3.03003 5.08032C3.56006 13.6204 10.39 20.4402 18.92 20.9702C20.05 21.0403 20.99 20.1003 20.99 18.9702L20.99 17.2402C21 16.2302 20.24 15.3804 19.23 15.2603Z" fill="#1E1E1E" fill-opacity="1.000000" fill-rule="nonzero"/>
	</g>
</svg>
